<svg width="556" height="536" viewBox="0 0 556 536" fill="none" xmlns="http://www.w3.org/2000/svg">
<path d="M177.313 8.60754C177.313 8.60754 153.132 29.8473 153.1 35.6101C153.069 41.373 177.313 59.8086 177.313 59.8086" stroke="#9933FF" stroke-width="1.2717" stroke-linecap="round"/>
<path fill-rule="evenodd" clip-rule="evenodd" d="M181.881 3.51156C179.469 0.567713 175.468 0.462427 172.945 3.2764C172.945 3.2764 145.318 28.1507 143.683 35.9088C142.048 43.6669 173.2 65.4078 173.2 65.4078C175.851 68.0572 179.841 67.6976 182.112 64.6048C184.383 61.512 184.075 56.8571 181.424 54.2077C181.424 54.2077 162.27 37.17 162.514 35.3097C162.759 33.4495 181.679 13.937 181.679 13.937C184.203 11.123 184.293 6.4554 181.881 3.51156ZM179.28 11.0091C180.418 9.74082 180.458 7.6371 179.371 6.3103C178.284 4.9835 176.481 4.93604 175.344 6.20431C175.344 6.20431 149.86 27.9388 148.855 35.7443C147.85 43.5498 175.459 62.3317 175.459 62.3317C176.654 63.5258 178.452 63.3638 179.476 61.9698C180.499 60.5759 180.36 58.4778 179.165 57.2838C179.165 57.2838 156.831 40.0425 157.342 35.4743C157.854 30.9061 179.28 11.0091 179.28 11.0091Z" fill="#313030" stroke="#313030" stroke-width="0.847802" stroke-linecap="round"/>
<path d="M173.555 36.0618C173.555 36.0618 204.301 36.0618 235.382 54.522C266.463 72.9823 275.819 114.005 275.819 114.005" stroke="#9933FF" stroke-width="2.73485" stroke-linecap="round"/>
<path d="M56.7749 320.286C56.7749 320.286 49.6957 354.62 52.8134 359.09C55.9311 363.56 84.6902 359.794 84.6902 359.794" stroke="#9933FF" stroke-width="1.2717" stroke-linecap="round"/>
<path fill-rule="evenodd" clip-rule="evenodd" d="M57.5214 312.964C54.0553 312.483 50.9107 315.37 50.4979 319.414C50.4979 319.414 42.7423 359.109 45.7104 366.309C48.6786 373.509 84.5697 367.167 84.5697 367.167C88.0597 367.244 90.9424 364.006 91.0085 359.934C91.0745 355.862 88.2988 352.499 84.8088 352.422C84.8088 352.422 60.74 353.489 59.9144 351.872C59.0888 350.255 63.0499 321.158 63.0499 321.158C63.4628 317.115 60.9876 313.446 57.5214 312.964ZM59.6025 320.679C59.7886 318.857 58.673 317.203 57.1108 316.986C55.5486 316.769 54.1314 318.071 53.9453 319.893C53.9453 319.893 46.1313 355.575 49.6115 362.344C53.0917 369.113 84.6353 363.117 84.6353 363.117C86.2083 363.152 87.5076 361.692 87.5373 359.857C87.5671 358.022 86.3161 356.506 84.7431 356.472C84.7431 356.472 58.1094 359.742 56.0133 355.837C53.9172 351.933 59.6025 320.679 59.6025 320.679Z" fill="#313030" stroke="#313030" stroke-width="0.847802" stroke-linecap="round"/>
<path d="M68.8431 344.26C68.8431 344.26 106.746 305.444 106.746 263.738C106.746 222.032 130.187 205.28 166.522 205.28" stroke="#9933FF" stroke-width="2.73485" stroke-linecap="round"/>
<path fill-rule="evenodd" clip-rule="evenodd" d="M539.291 260.462C542.436 258.695 543.758 254.288 542.244 250.619C542.244 250.619 530.504 212.279 524.684 208.068C518.865 203.856 491.516 231.703 491.516 231.703C488.537 233.826 487.597 238.364 489.417 241.839C491.236 245.315 495.126 246.411 498.105 244.289C498.105 244.289 517.913 228.301 519.354 229.147C520.795 229.993 530.854 257.016 530.854 257.016C532.368 260.686 536.146 262.228 539.291 260.462ZM533.982 255.259C534.665 256.913 536.367 257.608 537.785 256.812C539.202 256.016 539.798 254.03 539.116 252.376C539.116 252.376 529.273 217.384 523.22 213.857C517.168 210.33 493.326 235.16 493.326 235.16C491.983 236.116 491.559 238.162 492.379 239.728C493.199 241.294 494.953 241.789 496.295 240.832C496.295 240.832 517.252 221.379 520.818 223.358C524.384 225.337 533.982 255.259 533.982 255.259Z" fill="#313030" stroke="#313030" stroke-width="0.847802" stroke-linecap="round"/>
<path d="M536.548 253.819C536.548 253.819 526.706 220.424 522.018 218.608C517.33 216.793 494.809 237.997 494.809 237.997" stroke="#9933FF" stroke-width="1.2717" stroke-linecap="round"/>
<path d="M515.569 242.182C515.569 242.182 515.569 294.164 463.059 294.163C410.548 294.163 425.552 277.412 330.027 277.412" stroke="#9933FF" stroke-width="2.73485" stroke-linecap="round"/>
<path d="M343.345 464.509C343.345 464.509 369.683 481.912 374.226 479.648C378.768 477.383 383.592 444.093 383.592 444.093" stroke="#9933FF" stroke-width="1.2717" stroke-linecap="round"/>
<path fill-rule="evenodd" clip-rule="evenodd" d="M337.518 461.654C336.166 465.409 337.679 469.731 340.897 471.309C340.897 471.309 371.465 490.948 378.216 489.604C384.966 488.26 389.633 446.261 389.633 446.261C390.659 442.368 388.785 438.242 385.449 437.046C382.112 435.85 378.576 438.036 377.55 441.928C377.55 441.928 371.796 469.215 370.236 469.695C368.676 470.175 345.794 457.713 345.794 457.713C342.576 456.135 338.871 457.9 337.518 461.654ZM344.449 461.447C342.998 460.736 341.329 461.531 340.719 463.223C340.11 464.916 340.791 466.864 342.242 467.575C342.242 467.575 369.488 486.173 376.024 484.136C382.56 482.099 386.315 445.071 386.315 445.071C386.777 443.316 385.933 441.457 384.429 440.918C382.925 440.379 381.331 441.364 380.869 443.118C380.869 443.118 376.222 473.888 372.427 475.163C368.633 476.438 344.449 461.447 344.449 461.447Z" fill="#313030" stroke="#313030" stroke-width="0.847802" stroke-linecap="round"/>
<path d="M366.424 457.583C366.424 457.583 357.125 446.669 353.175 424.069M353.175 424.069C349.226 401.47 353.175 356.724 353.175 356.724M353.175 424.069C353.175 424.069 334.715 382.363 307.464 406.976C280.213 431.589 210.475 388.516 209.302 356.724" stroke="#9933FF" stroke-width="2.73485" stroke-linecap="round"/>
</svg>
