<svg width="135" height="116" viewBox="0 0 135 116" fill="none" xmlns="http://www.w3.org/2000/svg">
<path d="M34.3134 8.60754C34.3134 8.60754 10.1315 29.8473 10.1001 35.6101C10.0687 41.373 34.3134 59.8086 34.3134 59.8086" stroke="#9933FF" stroke-width="1.2717" stroke-linecap="round"/>
<path fill-rule="evenodd" clip-rule="evenodd" d="M38.881 3.51156C36.469 0.567713 32.4682 0.462427 29.9449 3.2764C29.9449 3.2764 2.31833 28.1507 0.683276 35.9088C-0.951775 43.6669 30.2003 65.4078 30.2003 65.4078C32.8513 68.0572 36.8413 67.6976 39.1122 64.6048C41.383 61.512 41.0749 56.8571 38.4239 54.2077C38.4239 54.2077 19.2699 37.17 19.5144 35.3097C19.7589 33.4495 38.6794 13.937 38.6794 13.937C41.2027 11.123 41.2929 6.4554 38.881 3.51156ZM36.2805 11.0091C37.4177 9.74082 37.4584 7.6371 36.3713 6.3103C35.2842 4.98349 33.481 4.93604 32.3438 6.20431C32.3438 6.20431 6.86014 27.9388 5.8552 35.7443C4.85027 43.5498 32.4589 62.3317 32.4589 62.3317C33.6537 63.5258 35.452 63.3638 36.4755 61.9698C37.499 60.5759 37.3601 58.4778 36.1653 57.2838C36.1653 57.2838 13.8312 40.0425 14.3425 35.4743C14.8537 30.9061 36.2805 11.0091 36.2805 11.0091Z" fill="#313030" stroke="#313030" stroke-width="0.847802" stroke-linecap="round"/>
<path d="M30.5547 36.0618C30.5547 36.0618 61.3006 36.0618 92.382 54.522C123.463 72.9823 132.819 114.005 132.819 114.005" stroke="#9933FF" stroke-width="2.73485" stroke-linecap="round"/>
</svg>
