<svg width="320" height="534" viewBox="0 0 320 534" fill="none" xmlns="http://www.w3.org/2000/svg">
<path d="M0 0H320V496C320 496 246.5 534 158 534C69.5 534 0 496 0 496V0Z" fill="#1F1F1F"/>
<path d="M0 0H320V496C320 496 246.5 534 158 534C69.5 534 0 496 0 496V0Z" fill="url(#paint0_linear_54_2514)" fill-opacity="0.2"/>
<path d="M0 0H320V496C320 496 246.5 534 158 534C69.5 534 0 496 0 496V0Z" fill="url(#paint1_linear_54_2514)" fill-opacity="0.2"/>
<defs>
<linearGradient id="paint0_linear_54_2514" x1="0" y1="0" x2="150.5" y2="196" gradientUnits="userSpaceOnUse">
<stop stop-color="#9933FF" stop-opacity="0.81"/>
<stop offset="1" stop-color="#9933FF" stop-opacity="0"/>
</linearGradient>
<linearGradient id="paint1_linear_54_2514" x1="320" y1="492.5" x2="94.5" y2="223" gradientUnits="userSpaceOnUse">
<stop stop-color="#9933FF"/>
<stop offset="1" stop-opacity="0"/>
</linearGradient>
</defs>
</svg>
