<svg width="12" height="13" viewBox="0 0 12 13" fill="none" xmlns="http://www.w3.org/2000/svg">
<path d="M6.09524 0.734991C2.83333 0.734991 0.190476 3.40166 0.190476 6.63975C0.190476 9.90166 2.83333 12.5445 6.09524 12.5445C9.33333 12.5445 12 9.90166 12 6.63975C12 3.40166 9.33333 0.734991 6.09524 0.734991ZM8.88095 8.9969C8.83333 9.04451 7.92857 10.0921 6.2619 10.0921C4.2381 10.0921 2.80952 8.59213 2.80952 6.61594C2.80952 4.68737 4.28571 3.21118 6.2381 3.21118C7.83333 3.21118 8.66667 4.09213 8.69048 4.13975C8.7381 4.18737 8.78571 4.2588 8.78571 4.33023C8.78571 4.37785 8.7619 4.44928 8.7381 4.4969L8.19048 5.30642C8.09524 5.44928 7.90476 5.4969 7.7619 5.35404C7.7619 5.35404 7.14286 4.80642 6.28571 4.80642C5.19048 4.80642 4.52381 5.59213 4.52381 6.61594C4.52381 7.54451 5.14286 8.4969 6.30952 8.4969C7.21429 8.4969 7.85714 7.83023 7.85714 7.83023C7.97619 7.68737 8.19048 7.71118 8.30952 7.85404L8.88095 8.63975C8.92857 8.68737 8.92857 8.7588 8.92857 8.80642C8.92857 8.87785 8.90476 8.94928 8.88095 8.9969Z" fill="white"/>
</svg>
