<svg width="53" height="52" viewBox="0 0 53 52" fill="none" xmlns="http://www.w3.org/2000/svg">
<path d="M35.1723 49.284V31.5889H41.112L42.0012 24.6929H35.1723V20.2899C35.1723 18.2933 35.7269 16.9326 38.5901 16.9326L42.2418 16.931V10.7633C41.61 10.6792 39.4424 10.4914 36.9206 10.4914C31.6555 10.4914 28.051 13.7051 28.051 19.6071V24.6929H22.0962V31.5889H28.051V49.284H35.1723Z" fill="#9933FF"/>
<path d="M46.8166 50.6351C48.9552 50.6351 50.6893 48.9012 50.6893 46.7623V6.1122C50.6893 3.9731 48.9551 2.23948 46.8166 2.23948H6.16668C4.02745 2.23948 2.29395 3.97328 2.29395 6.1122V46.7623C2.29395 48.901 4.02739 50.6351 6.16668 50.6351H46.8166Z" stroke="#9933FF" stroke-width="2.70164"/>
</svg>
