<svg width="47" height="42" viewBox="0 0 47 42" fill="none" xmlns="http://www.w3.org/2000/svg">
<path fill-rule="evenodd" clip-rule="evenodd" d="M3.49624 0.362183H7.84832V3.33096H6.46502H3.49624V5.09526V6.29974V8.06404H6.46502H7.84832V11.0328H3.49624H0.527466V8.06404V3.33096V0.362183H3.49624ZM12.9624 8.06404H9.99431V12.7078H9.99362V38.7018V41.6706H12.9624H18.7642H21.733V38.7018V11.0328H28.1795H31.1483V8.06404V3.33096V1.13256C29.0817 0.613041 26.8825 0.3622 24.5661 0.3622L24.5661 0.362183H9.99431V3.33096H25.2107H28.1795V5.09526V6.29974V8.06404H25.2107H21.733H18.7642V11.0328V35.733V38.7018H15.9312H15.7955H12.9624V35.733V11.0328V8.06404ZM24.5661 41.6706H23.8536V38.7018H24.5661C28.3322 38.7018 31.6233 38.0063 34.4394 36.6152C37.2894 35.1902 39.4778 33.1544 41.0046 30.508C42.5654 27.8615 43.3457 24.7401 43.3457 21.1436C43.3457 17.5471 42.5654 14.4087 41.0046 11.7283C39.4778 9.01404 37.2894 6.94438 34.4394 5.51936C34.0579 5.32174 33.6678 5.1375 33.2689 4.96664V1.77755C34.135 2.08933 34.9745 2.45415 35.7861 2.87354C39.1377 4.55369 41.7606 7.02549 43.5813 10.2537C45.4381 13.4511 46.3145 17.1151 46.3145 21.1436C46.3145 25.1739 45.4372 28.8306 43.569 32.0039C41.7388 35.1708 39.1097 37.5992 35.7671 39.2705L35.7607 39.2737L35.7542 39.2769C32.4557 40.9063 28.6985 41.6706 24.5661 41.6706ZM24.5661 33.9687H23.8536V31H24.5661C28.1724 31 30.481 30.0364 31.9679 28.5266C33.4784 26.9929 34.4224 24.6753 34.4224 21.1436C34.4224 17.5751 33.4759 15.1859 31.9371 13.5761C31.7975 13.43 31.6507 13.289 31.4966 13.1534H33.2689V10.7619C33.5535 11.0004 33.825 11.2547 34.0832 11.5248C36.2885 13.8319 37.3912 17.0382 37.3912 21.1436C37.3912 25.2151 36.2885 28.3705 34.0832 30.6098C31.8778 32.8491 28.7054 33.9687 24.5661 33.9687Z" fill="url(#paint0_linear_32_1564)"/>
<defs>
<linearGradient id="paint0_linear_32_1564" x1="23.421" y1="0.362183" x2="23.421" y2="41.6706" gradientUnits="userSpaceOnUse">
<stop stop-color="#FDFFFC"/>
<stop offset="1" stop-color="#8D3AF6"/>
</linearGradient>
</defs>
</svg>
