<svg width="181" height="52" viewBox="0 0 181 52" fill="none" xmlns="http://www.w3.org/2000/svg">
<path fill-rule="evenodd" clip-rule="evenodd" d="M3.49624 3.36218H7.84832V6.33096H6.46502H3.49624V8.09526V9.29974V11.064H6.46502H7.84832V14.0328H3.49624H0.527466V11.064V6.33096V3.36218H3.49624ZM12.9624 11.064H9.99431V15.7078H9.99362V41.7018V44.6706H12.9624H18.7642H21.733V41.7018V14.0328H28.1795H31.1483V11.064V6.33096V4.13256C29.0817 3.61304 26.8825 3.3622 24.5661 3.3622L24.5661 3.36218H9.99431V6.33096H25.2107H28.1795V8.09526V9.29974V11.064H25.2107H21.733H18.7642V14.0328V38.733V41.7018H15.9312H15.7955H12.9624V38.733V14.0328V11.064ZM24.5661 44.6706H23.8536V41.7018H24.5661C28.3322 41.7018 31.6233 41.0063 34.4394 39.6152C37.2894 38.1902 39.4778 36.1544 41.0046 33.508C42.5654 30.8615 43.3457 27.7401 43.3457 24.1436C43.3457 20.5471 42.5654 17.4087 41.0046 14.7283C39.4778 12.014 37.2894 9.94438 34.4394 8.51936C34.0579 8.32174 33.6678 8.1375 33.2689 7.96664V4.77755C34.135 5.08933 34.9745 5.45415 35.7861 5.87354C39.1377 7.55369 41.7606 10.0255 43.5813 13.2537C45.4381 16.4511 46.3145 20.1151 46.3145 24.1436C46.3145 28.1739 45.4372 31.8306 43.569 35.0039C41.7388 38.1708 39.1097 40.5992 35.7671 42.2705L35.7607 42.2737L35.7542 42.2769C32.4557 43.9063 28.6985 44.6706 24.5661 44.6706ZM24.5661 36.9687H23.8536V34H24.5661C28.1724 34 30.481 33.0364 31.9679 31.5266C33.4784 29.9929 34.4224 27.6753 34.4224 24.1436C34.4224 20.5751 33.4759 18.1859 31.9371 16.5761C31.7975 16.43 31.6507 16.289 31.4966 16.1534H33.2689V13.7619C33.5535 14.0004 33.825 14.2547 34.0832 14.5248C36.2885 16.8319 37.3912 20.0382 37.3912 24.1436C37.3912 28.2151 36.2885 31.3705 34.0832 33.6098C31.8778 35.8491 28.7054 36.9687 24.5661 36.9687Z" fill="url(#paint0_linear_32_1563)"/>
<path d="M67.1064 3.28084V4.71374H64.256V13.9891H62.4995V4.71374H59.6337V3.28084H67.1064ZM70.3335 6.73213C70.5903 6.30072 70.9293 5.96689 71.3504 5.73064C71.7818 5.48412 72.2903 5.36086 72.8758 5.36086V7.17895H72.429C71.7408 7.17895 71.2169 7.35357 70.8574 7.7028C70.5082 8.05204 70.3335 8.65807 70.3335 9.52089V13.9891H68.5771V5.49953H70.3335V6.73213ZM73.5967 9.70578C73.5967 8.85323 73.7713 8.09826 74.1205 7.44088C74.48 6.78349 74.9628 6.27504 75.5688 5.91553C76.1851 5.54575 76.8631 5.36086 77.6026 5.36086C78.2703 5.36086 78.8506 5.49439 79.3437 5.76146C79.847 6.01825 80.2476 6.34181 80.5455 6.73213V5.49953H82.3173V13.9891H80.5455V12.7257C80.2476 13.1263 79.8419 13.4601 79.3283 13.7271C78.8147 13.9942 78.2292 14.1277 77.5718 14.1277C76.8425 14.1277 76.1749 13.9429 75.5688 13.5731C74.9628 13.193 74.48 12.6692 74.1205 12.0015C73.7713 11.3236 73.5967 10.5583 73.5967 9.70578ZM80.5455 9.7366C80.5455 9.15111 80.4222 8.64266 80.1757 8.21125C79.9394 7.77984 79.6262 7.45115 79.2358 7.22517C78.8455 6.99919 78.4244 6.8862 77.9724 6.8862C77.5205 6.8862 77.0993 6.99919 76.709 7.22517C76.3187 7.44088 76.0003 7.76443 75.7537 8.19584C75.5175 8.61698 75.3994 9.1203 75.3994 9.70578C75.3994 10.2913 75.5175 10.8049 75.7537 11.2465C76.0003 11.6882 76.3187 12.0272 76.709 12.2634C77.1096 12.4894 77.5307 12.6024 77.9724 12.6024C78.4244 12.6024 78.8455 12.4894 79.2358 12.2634C79.6262 12.0375 79.9394 11.7088 80.1757 11.2773C80.4222 10.8357 80.5455 10.3221 80.5455 9.7366ZM88.5995 5.36086C89.2672 5.36086 89.8629 5.49953 90.3868 5.77686C90.9209 6.0542 91.3369 6.46507 91.6348 7.00947C91.9327 7.55386 92.0816 8.21125 92.0816 8.98163V13.9891H90.3406V9.24356C90.3406 8.48345 90.1505 7.9031 89.7705 7.50251C89.3904 7.09164 88.8717 6.8862 88.2143 6.8862C87.5569 6.8862 87.0331 7.09164 86.6428 7.50251C86.2627 7.9031 86.0727 8.48345 86.0727 9.24356V13.9891H84.3162V5.49953H86.0727V6.4702C86.3603 6.12096 86.7249 5.84876 87.1666 5.6536C87.6186 5.45844 88.0962 5.36086 88.5995 5.36086ZM97.0954 14.1277C96.4278 14.1277 95.8269 14.0096 95.2928 13.7734C94.7689 13.5268 94.3529 13.1982 94.0448 12.7873C93.7366 12.3661 93.5723 11.8988 93.5517 11.3852H95.3698C95.4006 11.7447 95.5701 12.0477 95.8783 12.2942C96.1967 12.5305 96.5921 12.6486 97.0646 12.6486C97.5577 12.6486 97.9377 12.5562 98.2048 12.3713C98.4821 12.1761 98.6208 11.9296 98.6208 11.6317C98.6208 11.3133 98.4667 11.0771 98.1586 10.923C97.8607 10.7689 97.3831 10.5994 96.7257 10.4145C96.0888 10.2399 95.5701 10.0704 95.1695 9.90608C94.7689 9.74173 94.4197 9.49008 94.1218 9.15111C93.8342 8.81215 93.6904 8.36533 93.6904 7.81066C93.6904 7.3587 93.8239 6.94783 94.091 6.57805C94.358 6.198 94.7381 5.90012 95.2311 5.68442C95.7344 5.46871 96.3097 5.36086 96.9568 5.36086C97.9223 5.36086 98.6978 5.60738 99.2833 6.10042C99.8791 6.58319 100.197 7.24571 100.239 8.08799H98.4821C98.4513 7.70794 98.2972 7.40492 98.0199 7.17895C97.7426 6.95297 97.3676 6.83998 96.8951 6.83998C96.4329 6.83998 96.0785 6.92729 95.832 7.10191C95.5855 7.27653 95.4622 7.50764 95.4622 7.79525C95.4622 8.02123 95.5444 8.21125 95.7088 8.36533C95.8731 8.5194 96.0734 8.64266 96.3097 8.73511C96.5459 8.81728 96.8951 8.92513 97.3574 9.05867C97.9737 9.22301 98.477 9.3925 98.8673 9.56711C99.2679 9.73146 99.612 9.97798 99.8996 10.3067C100.187 10.6354 100.336 11.0719 100.346 11.6163C100.346 12.0991 100.213 12.5305 99.9458 12.9105C99.6788 13.2906 99.2987 13.5885 98.8057 13.8042C98.3229 14.0199 97.7528 14.1277 97.0954 14.1277ZM105.495 6.93243H103.924V13.9891H102.152V6.93243H101.15V5.49953H102.152V4.89863C102.152 3.92282 102.409 3.21408 102.922 2.7724C103.446 2.32044 104.263 2.09446 105.372 2.09446V3.55818C104.838 3.55818 104.463 3.6609 104.247 3.86633C104.032 4.06149 103.924 4.40559 103.924 4.89863V5.49953H105.495V6.93243ZM114.525 9.5363C114.525 9.85472 114.504 10.1423 114.463 10.3991H107.976C108.028 11.0771 108.279 11.6215 108.731 12.0323C109.183 12.4432 109.738 12.6486 110.395 12.6486C111.34 12.6486 112.008 12.2532 112.398 11.4622H114.293C114.037 12.2429 113.569 12.8849 112.891 13.3882C112.224 13.8812 111.392 14.1277 110.395 14.1277C109.584 14.1277 108.855 13.948 108.208 13.5885C107.571 13.2187 107.067 12.7051 106.698 12.0477C106.338 11.3801 106.158 10.6097 106.158 9.7366C106.158 8.8635 106.333 8.09826 106.682 7.44088C107.042 6.77322 107.54 6.25963 108.177 5.90012C108.824 5.54061 109.563 5.36086 110.395 5.36086C111.197 5.36086 111.91 5.53548 112.537 5.88472C113.164 6.23395 113.652 6.72699 114.001 7.36384C114.35 7.99041 114.525 8.71456 114.525 9.5363ZM112.691 8.98163C112.681 8.33451 112.45 7.81579 111.998 7.42547C111.546 7.03514 110.986 6.83998 110.318 6.83998C109.712 6.83998 109.194 7.03514 108.762 7.42547C108.331 7.80552 108.074 8.32424 107.992 8.98163H112.691ZM117.701 6.73213C117.958 6.30072 118.297 5.96689 118.718 5.73064C119.15 5.48412 119.658 5.36086 120.244 5.36086V7.17895H119.797C119.109 7.17895 118.585 7.35357 118.225 7.7028C117.876 8.05204 117.701 8.65807 117.701 9.52089V13.9891H115.945V5.49953H117.701V6.73213ZM60.0693 36.2013C60.0693 34.6512 60.3868 33.2785 61.0218 32.0833C61.6755 30.888 62.5532 29.9636 63.6551 29.3099C64.7756 28.6376 66.0176 28.3014 67.3809 28.3014C68.3894 28.3014 69.3792 28.5255 70.3504 28.9737C71.3402 29.4033 72.1246 29.9822 72.7035 30.7106V23.259H75.9251V43.9891H72.7035V41.6639C72.1806 42.411 71.4522 43.0273 70.5184 43.5128C69.6033 43.9984 68.5482 44.2412 67.3529 44.2412C66.0082 44.2412 64.7756 43.905 63.6551 43.2327C62.5532 42.5417 61.6755 41.5892 61.0218 40.3753C60.3868 39.1427 60.0693 37.7514 60.0693 36.2013ZM72.7035 36.2573C72.7035 35.1928 72.4794 34.2683 72.0312 33.4839C71.6016 32.6996 71.032 32.1019 70.3224 31.6911C69.6127 31.2802 68.847 31.0748 68.0252 31.0748C67.2035 31.0748 66.4378 31.2802 65.7281 31.6911C65.0184 32.0833 64.4395 32.6715 63.9913 33.4559C63.5617 34.2216 63.3469 35.1368 63.3469 36.2013C63.3469 37.2658 63.5617 38.1996 63.9913 39.0026C64.4395 39.8057 65.0184 40.422 65.7281 40.8515C66.4565 41.2624 67.2222 41.4678 68.0252 41.4678C68.847 41.4678 69.6127 41.2624 70.3224 40.8515C71.032 40.4407 71.6016 39.843 72.0312 39.0587C72.4794 38.2556 72.7035 37.3218 72.7035 36.2573ZM81.1842 26.5085C80.6053 26.5085 80.1197 26.3124 79.7275 25.9202C79.3353 25.5281 79.1392 25.0425 79.1392 24.4635C79.1392 23.8846 79.3353 23.399 79.7275 23.0068C80.1197 22.6146 80.6053 22.4185 81.1842 22.4185C81.7445 22.4185 82.2207 22.6146 82.6129 23.0068C83.0051 23.399 83.2012 23.8846 83.2012 24.4635C83.2012 25.0425 83.0051 25.5281 82.6129 25.9202C82.2207 26.3124 81.7445 26.5085 81.1842 26.5085ZM82.753 28.5535V43.9891H79.5594V28.5535H82.753ZM91.9883 44.2412C90.7744 44.2412 89.6818 44.0264 88.7107 43.5969C87.7582 43.1487 87.0019 42.551 86.4416 41.804C85.8813 41.0383 85.5825 40.1886 85.5452 39.2548H88.8508C88.9068 39.9084 89.215 40.4594 89.7752 40.9076C90.3542 41.3371 91.0732 41.5519 91.9323 41.5519C92.8287 41.5519 93.5197 41.3838 94.0053 41.0476C94.5095 40.6928 94.7617 40.2446 94.7617 39.703C94.7617 39.124 94.4815 38.6945 93.9213 38.4144C93.3797 38.1342 92.5112 37.8261 91.316 37.4899C90.1581 37.1724 89.215 36.8643 88.4866 36.5654C87.7582 36.2666 87.1233 35.8091 86.5817 35.1928C86.0587 34.5765 85.7973 33.7641 85.7973 32.7556C85.7973 31.9339 86.0401 31.1868 86.5256 30.5145C87.0112 29.8235 87.7022 29.2819 88.5987 28.8897C89.5138 28.4975 90.5596 28.3014 91.7362 28.3014C93.4917 28.3014 94.9017 28.7496 95.9662 29.6461C97.0494 30.5238 97.6284 31.7284 97.7031 33.2598H94.5095C94.4535 32.5688 94.1734 32.0179 93.6691 31.607C93.1649 31.1962 92.4832 30.9907 91.6241 30.9907C90.7837 30.9907 90.1394 31.1495 89.6912 31.467C89.243 31.7844 89.0189 32.2047 89.0189 32.7276C89.0189 33.1384 89.1683 33.4839 89.4671 33.7641C89.7659 34.0442 90.1301 34.2683 90.5596 34.4364C90.9892 34.5858 91.6241 34.7819 92.4645 35.0247C93.5851 35.3235 94.5002 35.6317 95.2099 35.9491C95.9382 36.248 96.5639 36.6962 97.0868 37.2938C97.6097 37.8914 97.8805 38.6852 97.8992 39.675C97.8992 40.5527 97.6564 41.3371 97.1708 42.0281C96.6853 42.7191 95.9943 43.2607 95.0978 43.6529C94.2201 44.0451 93.1836 44.2412 91.9883 44.2412ZM103.983 30.8226C104.525 30.113 105.262 29.5153 106.196 29.0298C107.13 28.5442 108.185 28.3014 109.362 28.3014C110.706 28.3014 111.93 28.6376 113.032 29.3099C114.152 29.9636 115.03 30.888 115.665 32.0833C116.3 33.2785 116.617 34.6512 116.617 36.2013C116.617 37.7514 116.3 39.1427 115.665 40.3753C115.03 41.5892 114.152 42.5417 113.032 43.2327C111.93 43.905 110.706 44.2412 109.362 44.2412C108.185 44.2412 107.139 44.0078 106.224 43.5409C105.309 43.0553 104.562 42.4577 103.983 41.748V51.3287H100.79V28.5535H103.983V30.8226ZM113.368 36.2013C113.368 35.1368 113.144 34.2216 112.695 33.4559C112.266 32.6715 111.687 32.0833 110.959 31.6911C110.249 31.2802 109.483 31.0748 108.661 31.0748C107.858 31.0748 107.093 31.2802 106.364 31.6911C105.655 32.1019 105.076 32.6996 104.628 33.4839C104.198 34.2683 103.983 35.1928 103.983 36.2573C103.983 37.3218 104.198 38.2556 104.628 39.0587C105.076 39.843 105.655 40.4407 106.364 40.8515C107.093 41.2624 107.858 41.4678 108.661 41.4678C109.483 41.4678 110.249 41.2624 110.959 40.8515C111.687 40.422 112.266 39.8057 112.695 39.0026C113.144 38.1996 113.368 37.2658 113.368 36.2013ZM118.151 36.2013C118.151 34.6512 118.468 33.2785 119.103 32.0833C119.757 30.888 120.635 29.9636 121.736 29.3099C122.857 28.6376 124.09 28.3014 125.434 28.3014C126.648 28.3014 127.703 28.5442 128.6 29.0298C129.515 29.4967 130.243 30.085 130.785 30.7946V28.5535H134.006V43.9891H130.785V41.692C130.243 42.4203 129.506 43.0273 128.572 43.5128C127.638 43.9984 126.573 44.2412 125.378 44.2412C124.052 44.2412 122.838 43.905 121.736 43.2327C120.635 42.5417 119.757 41.5892 119.103 40.3753C118.468 39.1427 118.151 37.7514 118.151 36.2013ZM130.785 36.2573C130.785 35.1928 130.561 34.2683 130.113 33.4839C129.683 32.6996 129.113 32.1019 128.404 31.6911C127.694 31.2802 126.928 31.0748 126.107 31.0748C125.285 31.0748 124.519 31.2802 123.809 31.6911C123.1 32.0833 122.521 32.6715 122.073 33.4559C121.643 34.2216 121.428 35.1368 121.428 36.2013C121.428 37.2658 121.643 38.1996 122.073 39.0026C122.521 39.8057 123.1 40.422 123.809 40.8515C124.538 41.2624 125.304 41.4678 126.107 41.4678C126.928 41.4678 127.694 41.2624 128.404 40.8515C129.113 40.4407 129.683 39.843 130.113 39.0587C130.561 38.2556 130.785 37.3218 130.785 36.2573ZM141.367 31.1588V39.703C141.367 40.2819 141.497 40.7021 141.759 40.9636C142.039 41.2064 142.506 41.3278 143.159 41.3278H145.12V43.9891H142.599C141.161 43.9891 140.059 43.6529 139.294 42.9806C138.528 42.3083 138.145 41.2157 138.145 39.703V31.1588H136.324V28.5535H138.145V24.7157H141.367V28.5535H145.12V31.1588H141.367ZM146.439 36.2573C146.439 34.6699 146.757 33.2785 147.391 32.0833C148.045 30.8693 148.942 29.9355 150.081 29.2819C151.22 28.6282 152.527 28.3014 154.003 28.3014C155.87 28.3014 157.411 28.7496 158.625 29.6461C159.858 30.5238 160.689 31.7844 161.118 33.4279H157.673C157.392 32.6622 156.944 32.0646 156.328 31.635C155.712 31.2055 154.937 30.9907 154.003 30.9907C152.695 30.9907 151.65 31.4576 150.865 32.3914C150.099 33.3065 149.717 34.5952 149.717 36.2573C149.717 37.9194 150.099 39.2174 150.865 40.1512C151.65 41.085 152.695 41.5519 154.003 41.5519C155.852 41.5519 157.075 40.7395 157.673 39.1147H161.118C160.67 40.6835 159.83 41.9347 158.597 42.8685C157.364 43.7836 155.833 44.2412 154.003 44.2412C152.527 44.2412 151.22 43.9144 150.081 43.2607C148.942 42.5884 148.045 41.6546 147.391 40.4594C146.757 39.2454 146.439 37.8447 146.439 36.2573ZM171.724 28.3014C172.901 28.3014 173.947 28.5535 174.862 29.0578C175.796 29.562 176.524 30.3091 177.047 31.2989C177.589 32.2887 177.859 33.4839 177.859 34.8846V43.9891H174.694V35.3609C174.694 33.9789 174.348 32.9237 173.657 32.1953C172.966 31.4483 172.023 31.0748 170.828 31.0748C169.633 31.0748 168.68 31.4483 167.971 32.1953C167.28 32.9237 166.934 33.9789 166.934 35.3609V43.9891H163.741V23.259H166.934V30.3464C167.476 29.6928 168.157 29.1885 168.979 28.8337C169.82 28.4788 170.735 28.3014 171.724 28.3014Z" fill="white"/>
<defs>
<linearGradient id="paint0_linear_32_1563" x1="23.421" y1="3.36218" x2="23.421" y2="44.6706" gradientUnits="userSpaceOnUse">
<stop stop-color="#FDFFFC"/>
<stop offset="1" stop-color="#8D3AF6"/>
</linearGradient>
</defs>
</svg>
