<svg width="53" height="53" viewBox="0 0 53 53" fill="none" xmlns="http://www.w3.org/2000/svg">
<path d="M38.4359 2.19238H13.9025C7.12774 2.19238 1.63574 7.61977 1.63574 14.3148V38.5596C1.63574 45.2546 7.12774 50.682 13.9025 50.682H38.4359C45.2106 50.682 50.7026 45.2546 50.7026 38.5596V14.3148C50.7026 7.61977 45.2106 2.19238 38.4359 2.19238Z" stroke="#9933FF" stroke-width="3.09508" stroke-linecap="round" stroke-linejoin="round"/>
<path d="M35.9816 24.9092C36.2843 26.927 35.9356 28.9877 34.9849 30.7983C34.0342 32.6089 32.5301 34.0772 30.6863 34.9943C28.8426 35.9114 26.7532 36.2306 24.7153 35.9065C22.6774 35.5824 20.7948 34.6316 19.3352 33.1892C17.8757 31.7468 16.9135 29.8864 16.5856 27.8725C16.2577 25.8585 16.5807 23.7937 17.5087 21.9717C18.4367 20.1496 19.9224 18.6631 21.7546 17.7237C23.5867 16.7842 25.672 16.4395 27.7138 16.7387C29.7965 17.0439 31.7246 18.003 33.2134 19.4743C34.7022 20.9456 35.6727 22.851 35.9816 24.9092Z" stroke="#9933FF" stroke-width="3.09508" stroke-linecap="round" stroke-linejoin="round"/>
<path d="M39.6621 13.1026H39.682" stroke="#9933FF" stroke-width="3.09508" stroke-linecap="round" stroke-linejoin="round"/>
</svg>
