<svg width="49" height="41" viewBox="0 0 49 41" fill="none" xmlns="http://www.w3.org/2000/svg">
<path d="M47.3295 1.47966C45.3701 2.88272 43.2007 3.95583 40.9047 4.65768C39.6724 3.21928 38.0346 2.19978 36.213 1.73707C34.3913 1.27435 32.4736 1.39075 30.7192 2.07051C28.9648 2.75027 27.4584 3.96059 26.4037 5.5378C25.349 7.115 24.7969 8.98298 24.8221 10.8891V12.9662C21.2263 13.0609 17.6633 12.2513 14.4503 10.6096C11.2373 8.96791 8.47419 6.54504 6.40695 3.5568C6.40695 3.5568 -1.77756 22.251 16.6376 30.5596C12.4237 33.4634 7.40374 34.9194 2.3147 34.7139C20.7299 45.0996 43.2373 34.7139 43.2373 10.8268C43.2354 10.2482 43.1806 9.67105 43.0736 9.10276C45.1619 7.0121 46.6355 4.37251 47.3295 1.47966Z" stroke="#9933FF" stroke-width="2.78037" stroke-linecap="round" stroke-linejoin="round"/>
</svg>
